<svg xmlns="http://www.w3.org/2000/svg" class="d-block" viewBox="0 0 885 272" width="130" height="40" alt="Trello"><g fill="#fff" fill-rule="evenodd"><path d="M 723.294 178.59 c -12.77 5.203 -22.85 23.18 -38.176 33.4 c -0.95 0.632 -1.9 0.95 -2.534 0.95 c -1.267 0 -2.85 -1.268 -2.85 -6.97 c 0 -19.642 6.335 -29.146 11.72 -43.085 c 18.692 -48.47 50.688 -89.97 79.2 -135.274 c 2.218 -3.484 3.485 -7.285 3.485 -11.404 c 0 -3.484 -1.268 -6.336 -2.852 -9.82 C 770.02 3.534 764.318 1 757.982 1 c -3.484 0 -6.652 0.317 -10.77 0.317 c -14.89 0 -18.058 21.86 -21.543 27.56 c -23.76 40.235 -51.006 89.973 -64.945 125.137 c -3.057 7.883 -6.36 15.767 -8.868 23.857 c -13.775 3.99 -24.095 23.358 -40.236 34.12 c -0.95 0.632 -1.9 0.95 -2.534 0.95 c -1.267 0 -2.85 -1.268 -2.85 -6.97 c 0 -19.642 6.335 -29.146 11.72 -43.085 c 18.692 -48.47 50.69 -89.97 79.2 -135.274 c 2.218 -3.484 3.486 -7.285 3.486 -11.404 c 0 -3.484 -1.268 -6.336 -2.852 -9.82 C 696.523 3.534 690.82 1 684.485 1 c -3.485 0 -6.653 0.317 -10.77 0.317 c -14.89 0 -18.06 21.86 -21.544 27.56 c -23.76 40.235 -51.004 89.973 -64.943 125.137 c -1.108 2.858 -2.248 5.716 -3.372 8.584 c -0.346 0.185 -0.7 0.386 -1.063 0.604 c -16.157 9.504 -29.78 26.294 -49.42 37.7 c -3.802 2.216 -15.524 10.453 -25.028 10.453 c -2.218 0 -4.118 -0.633 -6.02 -1.584 c -2.85 -1.266 -5.702 -7.285 -5.702 -9.186 c 0 -1.584 0.317 -1.9 3.485 -3.802 c 27.88 -16.79 50.688 -40.867 70.33 -64.944 c 7.286 -8.87 16.79 -26.294 16.79 -38.966 c 0 -8.237 -2.85 -17.74 -12.672 -21.226 c -6.97 -2.534 -14.89 -3.8 -21.225 -3.8 c -16.79 0 -29.146 7.602 -36.116 14.888 c -7.095 7.575 -13.958 15.353 -20.335 23.405 c -6.663 -5.753 -16.06 -8.2 -24.968 -8.2 c -10.454 0 -30.096 12.99 -40.234 20.593 c -1.584 1.267 -2.534 1.9 -3.168 1.9 c -0.316 0 -0.633 -0.316 -0.633 -0.95 c 0 -0.317 0.633 -3.168 0.633 -8.237 c 0 -4.435 -0.95 -10.137 -5.068 -17.107 c -0.95 -1.585 -6.653 -5.07 -13.623 -5.07 c -8.554 0 -16.474 4.12 -16.474 8.554 c 0 3.168 2.85 4.435 2.85 7.286 c 0 1.584 -1.266 8.87 -3.167 15.84 c -5.387 20.276 -12.04 40.234 -19.01 60.192 c -3.8 11.088 -16.473 20.91 -16.473 32.948 c 0 3.8 2.535 8.87 6.02 12.672 c 5.702 6.336 9.187 8.553 14.255 8.553 c 2.218 0 4.752 -0.633 6.97 -2.534 c 4.752 -4.118 7.286 -8.236 8.554 -13.938 c 8.236 -37.383 31.996 -62.727 58.29 -79.517 c 8.87 -5.703 20.91 -11.722 22.494 -11.722 c 1.624 0 4.164 0.75 6.724 1.48 c -7.35 11.99 -13.306 24.632 -17.18 38.12 c -1.266 4.435 -1.9 8.554 -1.9 12.99 c 0 7.285 1.584 14.89 4.12 22.175 c 3.484 10.138 9.186 19.008 17.106 23.126 c 14.573 7.604 25.027 11.722 34.53 11.722 c 5.387 0 9.505 -0.95 13.94 -3.485 c 20.823 -11.78 33.59 -20.718 42.807 -28.656 c 0.253 8.05 1.84 12.508 7.565 18.52 c 5.702 6.02 14.572 11.404 26.294 13.94 c 1.9 0.316 3.802 0.632 5.702 0.632 c 13.41 0 26.318 -10.9 36.27 -21.706 c 1.152 2.358 2.827 4.61 5.23 7.134 c 5.704 6.02 14.574 11.404 26.296 13.94 c 1.9 0.316 3.8 0.632 5.702 0.632 c 15.71 0 30.727 -14.957 41.114 -27.2 c 3.462 7.162 13.137 14.24 24.78 19.914 c 3.168 1.584 6.97 2.534 10.455 2.534 c 13.622 0 23.443 -11.088 31.046 -19.324 c 19.643 -21.543 30.414 -48.154 38.65 -81.735 c 0.634 -2.534 1.585 -3.485 2.852 -3.485 c 3.168 0 7.286 0 11.722 -0.633 c 8.553 -1.267 15.206 -4.12 23.126 -5.386 c 4.752 -0.95 4.118 -2.533 8.554 -4.117 c 3.168 -1.267 5.702 -2.535 5.702 -5.703 c 0 -5.385 -9.82 -11.088 -24.71 -11.088 c -11.722 0 -18.692 0.95 -23.444 0.95 c -7.286 0 -9.187 -2.217 -13.94 -14.572 c 0 0 4.753 12.355 0 0 c -0.95 -2.534 -1.9 -3.802 -4.75 -6.336 c -6.654 -5.702 -14.89 -7.603 -21.543 -7.603 c -15.84 0 -29.464 16.158 -38.968 29.78 c -2.217 3.168 -5.385 5.702 -7.603 9.187 c -13.05 19.575 -25.545 41.65 -27.086 65.443 Z M 318.264 70.696 c 7.92 0 12.355 -0.634 13.306 -0.634 c 0.95 0 1.584 0.317 1.584 1.268 c 0 0.633 -0.317 1.584 -2.535 6.336 c -19.326 41.5 -32.63 83.635 -44.353 130.204 c -0.317 1.268 -1.267 6.02 -1.267 10.772 c 0 4.435 1.267 9.187 5.702 11.72 c 8.554 5.07 15.524 7.288 20.276 7.288 c 6.97 0 10.454 -4.436 10.454 -11.722 c 0 -6.336 0.317 -12.99 1.267 -18.058 c 8.87 -46.57 22.175 -83 42.767 -121.017 c 9.82 -18.058 11.088 -19.008 11.088 -20.592 c 0 -0.633 -0.317 -1.583 -0.95 -2.534 c 12.672 -2.85 27.878 -4.752 41.817 -4.752 c 1.584 0 7.92 2.218 8.87 3.168 c 2.218 2.218 4.436 4.436 8.238 4.436 c 3.168 0 8.553 -2.218 10.454 -3.485 c 4.435 -3.168 6.653 -6.653 6.653 -12.355 c 0 -5.386 -19.96 -18.692 -33.898 -18.692 c -17.108 0 -32.63 2.218 -47.204 5.07 c -6.336 1.266 -29.146 4.75 -45.62 4.75 c -15.84 0 -14.89 -2.216 -21.542 -2.216 c -3.8 0 -5.702 1.9 -7.286 3.484 c -1.584 1.584 -2.534 7.92 -2.534 13.623 c 0 2.85 0 5.07 1.584 6.97 c 4.752 5.702 13.94 6.97 23.126 6.97 c 0 0 -9.187 0 0 0 Z m 234.75 25.66 c 0 2.852 -0.952 4.753 -4.753 10.772 c -3.8 6.02 -2.217 6.02 -6.97 12.355 c -9.186 12.355 -20.59 24.71 -35.48 38.333 c -4.12 3.802 -4.752 3.802 -5.386 3.802 c -0.317 0 -0.95 -0.317 -0.95 -0.95 c 0 -0.95 0.316 -2.218 3.484 -8.87 c 9.82 -20.593 21.86 -34.216 35.165 -47.52 c 7.287 -7.288 11.722 -9.822 13.306 -9.822 c 0.95 0 1.583 0.317 1.583 1.9 c 0 0 0 -1.583 0 0 Z m 243.618 8.238 c 0.317 0 0.634 0.316 0.95 0.95 c 0.317 0.95 0.95 1.9 2.535 3.168 c 1.267 0.95 1.267 5.386 1.267 8.87 c 0 30.73 -17.424 56.074 -34.53 81.735 c -3.803 5.702 -6.02 6.653 -7.92 6.653 c -1.585 0 -4.12 -4.12 -5.07 -6.653 c -1.267 -3.485 -1.584 -7.603 -1.584 -9.187 c 0 -24.71 23.443 -61.46 38.966 -81.735 c 2.535 -3.485 4.436 -3.8 5.386 -3.8 c 0 0 -0.95 0 0 0 Z"/><path d="M 75 36 c -13.807 0 -25 11.2 -25 25 v 150 c 0 13.806 11.2 25 25 25 h 150 c 13.806 0 25 -11.2 25 -25 V 61 c 0 -13.807 -11.2 -25 -25 -25 H 75 Z m 99.997 26 C 168.37 62 163 67.372 163 74.006 v 63.988 c 0 6.63 5.373 12.006 11.997 12.006 h 37.006 c 6.626 0 11.997 -5.372 11.997 -12.006 V 74.006 C 224 67.376 218.627 62 212.003 62 h -37.006 Z m -87 0 C 81.37 62 76 67.367 76 74.005 v 113.99 C 76 194.625 81.373 200 87.997 200 h 37.006 c 6.626 0 11.997 -5.367 11.997 -12.005 V 74.005 C 137 67.375 131.627 62 125.003 62 H 87.997 Z"/></g></svg>